# xmcd CD database file
#
# Track frame offsets:
#	150
#	13851
#	30148
#	54503
#	70990
#	86552
#	110564
#	124806
#	140272
#	153540
#	170196
#	189616
#	209555
#	225035
#	241081
#	257474
#	282023
#	301357
#
# Disc length: 4219 seconds
#
# Revision: 2
# Processed by: cddbd v1.4b41PL1 Copyright (c) Steve Scherf et al.
# Submitted via: Feurio! 1.51.5ﬂ - http://www.feurio.com
#
DISCID=ef107912
DTITLE=Various Artist - olli
DYEAR=1900
DGENRE=
TTITLE0=Olsen Brothers - Fly on The Wings of Love
TTITLE1=Orange Blue - She's Got That Light
TTITLE2=Sonique - Feels So Good
TTITLE3=Xavier Naidoo - Seine Straﬂen
TTITLE4=Madonna - Music
TTITLE5=Limp Bizkit - Take A Look Around
TTITLE6=Christina Aguilera - Come On Over
TTITLE7=Britney Spears - Lucky
TTITLE8=Five - We Will Rock You
TTITLE9=CBA - dont give it up
TTITLE10=Robbie Williams - Rock Dj
TTITLE11=Sasha - Chemical Reaction
TTITLE12=The Corrs - Breathless
TTITLE13=The Underdog Project - Summer Jam
TTITLE14=Dominica - Gotta Let You Go
TTITLE15=Jennifer Lopez feat. Big Pun and - Feelin'  So Good
TTITLE16=Mariah  ft. Joe and 98 degrees - Thank God I Found You
TTITLE17=Pink - There You Go
EXTD=
EXTT0=12[Denmark]
EXTT1=by www.mp3hitz.net (DE-Charts)
EXTT2=www.page4all.net
EXTT3=www.page4all.net
EXTT4=GZA and Apoptosis
EXTT5=http://www.mp3-center.org
EXTT6=
EXTT7=Lancelot of #Mp3Cable
EXTT8=We always have the Latest Hits
EXTT9=
EXTT10=Lancelot of #Mp3Cable
EXTT11=http://netmusic2000.tsx.org/
EXTT12=by www.charthitz.org (Charts)
EXTT13=by www.charthitz.org (Charts)
EXTT14=by www.charthitz.org (Charts)
EXTT15=http://hello.to/musiclover
EXTT16=mp3mtvhits.come.to
EXTT17=by www.mp3hitz.net (DE-Charts)
PLAYORDER=
